<svg width="56" height="56" viewBox="0 0 56 56" fill="none" xmlns="http://www.w3.org/2000/svg">
<g clip-path="url(#clip0_451_8326)">
<rect x="0.484375" y="0.501953" width="54.7064" height="54.7064" rx="27.3532" fill="#D93025" style="fill:#D93025;fill:color(display-p3 0.8510 0.1882 0.1451);fill-opacity:1;"/>
<path opacity="0.3" d="M43.2233 15.3203H12.4531L13.5928 40.1074H42.0836L43.2233 15.3203Z" fill="white" style="fill:white;fill-opacity:1;"/>
<path opacity="0.3" d="M43.2233 15.3203H12.4531L26.627 25.8971H29.2626L43.2233 15.3203Z" fill="white" style="fill:white;fill-opacity:1;"/>
<path opacity="0.1" d="M24.5352 66.0551L45.7575 46.9551L66.9798 66.0551H24.5352Z" fill="white" style="fill:white;fill-opacity:1;"/>
<path fill-rule="evenodd" clip-rule="evenodd" d="M15.0158 17.4571C15.0158 16.2776 14.0602 15.3203 12.879 15.3203C11.6995 15.3203 10.7422 16.2776 10.7422 17.4571C10.7422 22.0077 10.7422 32.6388 10.7422 37.5432C10.7422 38.9603 11.8909 40.1074 13.3064 40.1074C14.2158 40.1074 15.0158 40.1074 15.0158 40.1074C15.0158 40.1074 15.0158 23.4727 15.0158 17.4571Z" fill="white" style="fill:white;fill-opacity:1;"/>
<path fill-rule="evenodd" clip-rule="evenodd" d="M40.6602 17.4571C40.6602 16.2776 41.6175 15.3203 42.797 15.3203C42.7987 15.3203 42.8004 15.3203 42.8004 15.3203C43.9799 15.3203 44.9338 16.2759 44.9338 17.4537C44.9338 22.0026 44.9338 32.6371 44.9338 37.5432C44.9338 38.9603 43.7867 40.1074 42.3696 40.1074C41.4619 40.1074 40.6602 40.1074 40.6602 40.1074C40.6602 40.1074 40.6602 23.4727 40.6602 17.4571Z" fill="white" style="fill:white;fill-opacity:1;"/>
<path fill-rule="evenodd" clip-rule="evenodd" d="M11.8101 19.306C11.3195 19.0222 10.9622 18.5573 10.8152 18.0102C10.6682 17.4632 10.7451 16.882 11.0289 16.3914C11.0289 16.3914 11.0306 16.3897 11.0306 16.388C11.3143 15.8974 11.781 15.5401 12.3281 15.3931C12.8751 15.2461 13.458 15.323 13.9486 15.6068L27.8379 23.6258L41.7307 15.605C42.2213 15.3213 42.8025 15.2443 43.3495 15.3914C43.8965 15.5384 44.3615 15.8956 44.6453 16.3863L44.647 16.388C44.9308 16.8786 45.0077 17.4632 44.8607 18.0102C44.7137 18.5573 44.3547 19.0239 43.8641 19.3077L32.1116 26.0925L27.8379 28.561L23.5643 26.0925L11.8101 19.306V19.306Z" fill="white" style="fill:white;fill-opacity:1;"/>
</g>
<defs>
<clipPath id="clip0_451_8326">
<rect width="54.7064" height="54.7064" fill="white" style="fill:white;fill-opacity:1;" transform="translate(0.484375 0.501953)"/>
</clipPath>
</defs>
</svg>
