<svg width="56" height="56" viewBox="0 0 56 56" fill="none" xmlns="http://www.w3.org/2000/svg">
<g clip-path="url(#clip0_451_8320)">
<rect x="0.320312" y="0.501953" width="54.7064" height="54.7064" rx="27.3532" fill="url(#paint0_radial_451_8320)" style=""/>
<rect x="0.320312" y="0.501953" width="54.7064" height="54.7064" rx="27.3532" fill="url(#paint1_radial_451_8320)" style=""/>
<path d="M21.9762 27.8555C21.9762 24.7084 24.5267 22.1565 27.6739 22.1565C30.821 22.1565 33.3729 24.7084 33.3729 27.8555C33.3729 31.0026 30.821 33.5545 27.6739 33.5545C24.5267 33.5545 21.9762 31.0026 21.9762 27.8555ZM18.8954 27.8555C18.8954 32.7039 22.8255 36.634 27.6739 36.634C32.5222 36.634 36.4523 32.7039 36.4523 27.8555C36.4523 23.0072 32.5222 19.077 27.6739 19.077C22.8255 19.077 18.8954 23.0072 18.8954 27.8555ZM34.7484 18.729C34.7482 19.1347 34.8684 19.5314 35.0936 19.8689C35.3189 20.2063 35.6392 20.4694 36.014 20.6248C36.3888 20.7802 36.8013 20.821 37.1993 20.742C37.5972 20.663 37.9629 20.4678 38.2499 20.181C38.5369 19.8942 38.7324 19.5287 38.8118 19.1308C38.8911 18.7329 38.8506 18.3204 38.6955 17.9455C38.5404 17.5706 38.2776 17.2501 37.9403 17.0245C37.603 16.799 37.2064 16.6785 36.8007 16.6783H36.7998C36.256 16.6786 35.7344 16.8947 35.3498 17.2792C34.9651 17.6637 34.7488 18.1851 34.7484 18.729V18.729ZM20.7672 41.771C19.1004 41.6951 18.1945 41.4175 17.5924 41.1829C16.7943 40.8722 16.2248 40.5021 15.626 39.9042C15.0273 39.3062 14.6566 38.7373 14.3473 37.9391C14.1126 37.3374 13.8349 36.4311 13.7592 34.7644C13.6763 32.9623 13.6597 32.421 13.6597 27.8556C13.6597 23.2903 13.6777 22.7504 13.7592 20.9469C13.8351 19.2801 14.1148 18.3757 14.3473 17.7722C14.658 16.974 15.0281 16.4045 15.626 15.8057C16.224 15.207 16.7929 14.8363 17.5924 14.527C18.1942 14.2923 19.1004 14.0147 20.7672 13.9389C22.5692 13.856 23.1105 13.8395 27.6739 13.8395C32.2372 13.8395 32.7791 13.8574 34.5826 13.9389C36.2494 14.0148 37.1538 14.2945 37.7573 14.527C38.5555 14.8363 39.125 15.2078 39.7238 15.8057C40.3225 16.4037 40.6918 16.974 41.0025 17.7722C41.2372 18.3739 41.5149 19.2801 41.5906 20.9469C41.6735 22.7504 41.6901 23.2903 41.6901 27.8556C41.6901 32.421 41.6735 32.9608 41.5906 34.7644C41.5147 36.4311 41.2357 37.3371 41.0025 37.9391C40.6918 38.7373 40.3217 39.3068 39.7238 39.9042C39.1258 40.5016 38.5555 40.8722 37.7573 41.1829C37.1556 41.4176 36.2494 41.6953 34.5826 41.771C32.7806 41.8539 32.2392 41.8705 27.6739 41.8705C23.1085 41.8705 22.5687 41.8539 20.7672 41.771V41.771ZM20.6256 10.8633C18.8057 10.9462 17.5621 11.2348 16.476 11.6574C15.3513 12.0938 14.3991 12.6793 13.4476 13.6293C12.4961 14.5792 11.9121 15.5329 11.4757 16.6577C11.0531 17.7444 10.7645 18.9873 10.6817 20.8073C10.5974 22.6301 10.5781 23.2129 10.5781 27.8555C10.5781 32.4982 10.5974 33.0809 10.6817 34.9037C10.7645 36.7238 11.0531 37.9666 11.4757 39.0534C11.9121 40.1774 12.4963 41.1322 13.4476 42.0818C14.399 43.0313 15.3513 43.616 16.476 44.0537C17.5641 44.4763 18.8057 44.7648 20.6256 44.8477C22.4494 44.9306 23.0312 44.9512 27.6739 44.9512C32.3165 44.9512 32.8993 44.932 34.7221 44.8477C36.5422 44.7648 37.785 44.4763 38.8717 44.0537C39.9958 43.616 40.9486 43.0317 41.9001 42.0818C42.8516 41.1318 43.4344 40.1774 43.872 39.0534C44.2946 37.9666 44.5846 36.7237 44.6661 34.9037C44.749 33.0796 44.7682 32.4982 44.7682 27.8555C44.7682 23.2129 44.749 22.6301 44.6661 20.8073C44.5832 18.9872 44.2946 17.7437 43.872 16.6577C43.4344 15.5336 42.8501 14.5807 41.9001 13.6293C40.9501 12.6778 39.9958 12.0938 38.8731 11.6574C37.785 11.2348 36.542 10.9448 34.7235 10.8633C32.9006 10.7804 32.3179 10.7598 27.6752 10.7598C23.0326 10.7598 22.4494 10.779 20.6256 10.8633Z" fill="white" style="fill:white;fill-opacity:1;"/>
</g>
<defs>
<radialGradient id="paint0_radial_451_8320" cx="0" cy="0" r="1" gradientUnits="userSpaceOnUse" gradientTransform="translate(14.8518 59.4219) rotate(-90) scale(54.2181 50.4271)">
<stop stop-color="#FFDD55" style="stop-color:#FFDD55;stop-color:color(display-p3 1.0000 0.8667 0.3333);stop-opacity:1;"/>
<stop offset="0.1" stop-color="#FFDD55" style="stop-color:#FFDD55;stop-color:color(display-p3 1.0000 0.8667 0.3333);stop-opacity:1;"/>
<stop offset="0.5" stop-color="#FF543E" style="stop-color:#FF543E;stop-color:color(display-p3 1.0000 0.3294 0.2431);stop-opacity:1;"/>
<stop offset="1" stop-color="#C837AB" style="stop-color:#C837AB;stop-color:color(display-p3 0.7843 0.2157 0.6706);stop-opacity:1;"/>
</radialGradient>
<radialGradient id="paint1_radial_451_8320" cx="0" cy="0" r="1" gradientUnits="userSpaceOnUse" gradientTransform="translate(-8.84329 4.44291) rotate(78.6806) scale(24.2357 99.9006)">
<stop stop-color="#3771C8" style="stop-color:#3771C8;stop-color:color(display-p3 0.2157 0.4431 0.7843);stop-opacity:1;"/>
<stop offset="0.128" stop-color="#3771C8" style="stop-color:#3771C8;stop-color:color(display-p3 0.2157 0.4431 0.7843);stop-opacity:1;"/>
<stop offset="1" stop-color="#6600FF" stop-opacity="0" style="stop-color:none;stop-opacity:0;"/>
</radialGradient>
<clipPath id="clip0_451_8320">
<rect width="54.7064" height="54.7064" fill="white" style="fill:white;fill-opacity:1;" transform="translate(0.320312 0.501953)"/>
</clipPath>
</defs>
</svg>
