<svg width="52" height="52" viewBox="0 0 52 52" fill="none" xmlns="http://www.w3.org/2000/svg">
<path d="M43.9837 7.8155C39.1921 3.04048 32.8032 0.387695 26.0594 0.387695C12.0394 0.387695 0.681372 11.7063 0.681372 25.6776C0.681372 30.0989 1.92366 34.5202 4.05328 38.2341L0.503906 51.3212L13.9915 47.7842C17.7184 49.7295 21.8001 50.7907 26.0594 50.7907C40.0794 50.7907 51.4374 39.4721 51.4374 25.5008C51.26 18.9572 48.7754 12.5905 43.9837 7.8155ZM38.3047 34.6971C37.7723 36.1119 35.2878 37.5267 34.0455 37.7036C32.9807 37.8804 31.5609 37.8804 30.1412 37.5267C29.2538 37.173 28.0116 36.8193 26.5918 36.1119C20.2029 33.4591 16.1212 27.0924 15.7662 26.5619C15.4113 26.2082 13.1042 23.2017 13.1042 20.0183C13.1042 16.835 14.7014 15.4202 15.2338 14.7127C15.7662 14.0053 16.4761 14.0053 17.0085 14.0053C17.3634 14.0053 17.8958 14.0053 18.2508 14.0053C18.6057 14.0053 19.1381 13.8285 19.6705 15.0665C20.2029 16.3044 21.4452 19.4878 21.6227 19.6646C21.8001 20.0183 21.8001 20.372 21.6227 20.7257C21.4452 21.0794 21.2677 21.4331 20.9128 21.7868C20.5579 22.1406 20.2029 22.6711 20.0255 22.848C19.6705 23.2017 19.3156 23.5554 19.6705 24.0859C20.0255 24.7933 21.2677 26.7387 23.2199 28.5072C25.7045 30.6295 27.6566 31.3369 28.3665 31.6906C29.0764 32.0443 29.4313 31.8674 29.7862 31.5137C30.1412 31.16 31.3835 29.7452 31.7384 29.0378C32.0933 28.3304 32.6257 28.5072 33.1581 28.6841C33.6905 28.8609 36.885 30.4526 37.4174 30.8063C38.1273 31.16 38.4822 31.3369 38.6597 31.5137C38.8371 32.0443 38.8371 33.2823 38.3047 34.6971Z" fill="#38BD65" style="fill:#38BD65;fill:color(display-p3 0.2181 0.7410 0.3959);fill-opacity:1;"/>
</svg>
